<?xml version="1.0" encoding="UTF-8"?>
<!DOCTYPE svg PUBLIC "-//W3C//DTD SVG 1.1//EN" "http://www.w3.org/Graphics/SVG/1.1/DTD/svg11.dtd">
<!-- Creator: CorelDRAW 2017 -->
<?xml-stylesheet href="7628-big-logo-311d10f2-08f3-4dfd-87b5-a6d25fc9ec8a.css" type="text/css"?>
<svg xmlns="http://www.w3.org/2000/svg" xml:space="preserve" width="112.799mm" height="123.218mm" version="1.1" style="shape-rendering:geometricPrecision; text-rendering:geometricPrecision; image-rendering:optimizeQuality; fill-rule:evenodd; fill:#fff; clip-rule:evenodd"
viewBox="0 0 11279.9 12321.79"
 xmlns:xlink="http://www.w3.org/1999/xlink">
 <g id="big-logo">
  <metadata id="CorelCorpID_0Corel-Layer"/>
  <path class="fil0" d="M6461.59 873.1c-198.44,-205.45 -677.9,-646.64 -1326.49,-873.09 0,-0.04 1439.44,426.9 2034.58,1024.08 0.04,0 -75.42,-271.88 -275.94,-468.98 0,-0.04 1339.73,752.61 1668.73,1776.77l2.51 6.91c10.48,-42.45 15.48,-79.34 17.68,-107.6 -11.35,-172.05 -44.84,-425.59 -142.34,-600.21 0,-0.01 417.19,449.79 287.16,983.08 0.04,0 159.13,-165.27 187.76,-439.35 0.04,-0.04 43.49,457.17 -260.07,812.1l194.24 54.85c-86,-18.63 -272.52,42.73 -305.01,53.84l-2.68 2.11c270.4,56.55 362.93,410.67 362.93,410.67 -128.5,-155.93 -363.71,-153.51 -363.71,-153.51 0,-0.01 241.55,126.61 179.84,280.95 -32.59,81.55 -47.83,238.41 -54.82,368.47l-1046.81 0.01c95.55,-179.32 112.81,-422.17 112.81,-422.17 -102.52,197.51 -241.48,170.03 -241.48,170.03 48.62,-68.08 78.32,-134.4 95.82,-195.12 -90.59,46.49 -168.81,72.04 -168.81,72.04 0.07,0 68.26,-187.04 37.08,-500.06 0,0 -167.63,397.32 -428.31,497.59 -260.48,100.17 -426.97,-28.26 -663.56,85.22 -236.61,113.35 -562.01,-14.96 -662.2,-116.56 0,0 -578.66,265.72 -876.97,230.01 -298.17,-35.63 -250.4,-168.31 -467.68,-84.7 -217.09,83.5 -1134.64,91.94 -1716.97,-357.92 0,0 26.54,55.87 82.97,131.8l49.85 7.58 -39.65 5.97c72.36,94.33 188.63,215.12 354.82,299.54 0,0 -210.04,8.86 -483.73,-17.18 57.93,46.29 126.09,91.62 203.31,127.28 0,-0.04 -89.74,43.08 -173,66.64l-762.53 0.01c-7.27,-45.24 -10.93,-88.54 -8.22,-124.4 7.58,-101.81 92.74,-157.33 147.07,-182.63 -19.26,-6.07 -38.38,-12.45 -57.4,-19.14l-182.74 -3.22 108.27 -24.94c-50.65,-20.49 -99.45,-43.41 -145.38,-68.86 -509.16,-282.05 -620.43,-903.81 -604.94,-1153.96 0,-0.01 407.46,712.47 1105.36,854.68 0,-0.01 -395.25,-222.61 -599.37,-486.98 0,0 553.79,234.67 998.32,281.87 0.04,0 -763.62,-346.6 -970.06,-708.97 -206.55,-362.44 -274.23,-841.86 -274.23,-841.86 0,-0.04 904.49,1318.09 2608.69,1693.76 0,-0.01 -1806.4,-1400.77 -2095.81,-1509.5 0,0 2101.43,1032.76 2620.96,1529.18 0.01,-0.01 -892,-999.64 -1454.5,-1326.44 0,-0.01 870.55,265.01 1226.93,547.44 0,-0.01 -812.51,-837.52 -2088.84,-1044.36l-251.88 -131.88c0,0 2202.31,-27.4 3701.63,1410.73 0.07,0 -483.2,-813.04 -1405.75,-1324.54 0,-0.03 1213.66,186.2 2127.64,1314.95 -261.76,-796.01 -1806.32,-1914.07 -3124.38,-1474.68l-364.14 -74.87c0,0 1089.7,-521.68 2269.63,-24.9 1179.9,496.71 1338.02,845.11 1338.02,845.11 0.07,0 -553.19,-901.34 -1143.5,-978.46 0,-0.04 488.59,18.31 708.23,191.62 0,-0.01 -802.14,-793.54 -1859.94,-461.05 0.04,-0.04 286.53,-318.7 970.1,-269.41 0,-0.01 -161.92,-213.33 -411.65,-272.42 0.04,0 766.19,114.3 1513.66,729.41 747.4,615.06 948.97,1759.86 948.97,1759.86 0.01,0 -4.47,-856.15 -341.73,-1321.36 0.01,-0.01 696.23,674.3 774.1,1533.31 0,0 55.41,-1477.78 -1103.2,-1887.98l-89.21 -106.16 -0.04 -0.05zm462.84 9360.13c88.12,-26.88 217.3,-73.27 281.51,-129.68 0.04,0 -43.78,183.34 -120.83,204.89 -41.98,11.68 -134.3,14.54 -209.48,14.57 -50.15,86.4 -98.32,150.57 -129.33,155.86 -89.81,15.34 -199.74,-57.93 -197.59,-119.55 2.27,-61.53 171.13,-106.01 171.13,-106.01 0.08,-0.01 281.8,-443.45 184.44,-412.26 -97.3,31.11 -349.54,315.84 -524.2,623.11 -96.34,218.75 -178.85,445.56 -168.38,597.67 0.04,0 -276.68,23.46 -263.84,-122.38 1.66,-19.12 11.89,-49.78 28.57,-88.97 -129.24,22.15 -268,46.85 -415.53,74.96 -697.83,132.79 -1048.46,315.74 -1099.82,540.78 -206.2,-57.01 -186.8,-196.04 -149.19,-271.75 61.1,-123.16 305.12,-209.23 497.84,-268.46 361.46,-111.09 822.64,-176.18 1241.42,-231.35 63.19,-123.37 146.65,-274.39 225.03,-420.06 -50.51,21.45 -96.7,27.63 -130.25,28.37 -84.38,148.43 -207.53,289.2 -290.3,304.97 -90.38,17.25 -244.3,-45.47 -252.3,-115.53 -1.02,-8.53 -1.17,-17.68 -0.33,-27.7 -73.73,103.79 -162.07,205.89 -219.89,198.94 -115.56,-13.87 -149.5,-66.67 -150.99,-119.49 -1.51,-52.85 114.23,-255.55 300.39,-503.24 0.01,0 -340.99,229.2 -569.48,740.31 0,0 -190.96,-27.74 -164.89,-164.67 45.37,-238.22 590.47,-849.88 532.55,-1130.89 259.15,31.18 226.1,170.46 157.03,278.52 -147,230.22 -397.01,642.97 -397.01,642.97 0.03,0 439.73,-521.4 491.31,-526.03 51.61,-4.65 150.49,49.54 150.25,76.8 -0.33,27.31 -318.14,481.3 -271.47,484.69 33.72,2.32 164.65,-136.67 234.92,-214.32 7.53,-13.86 15.59,-28.46 24.14,-43.56 173.15,-306.7 324.45,-438.3 462.46,-380.43 128.38,53.9 65.97,185.56 23.1,238.9 23.14,13.44 31.96,48.37 10.69,109.21 -8.36,24.16 -18.84,49.32 -30.83,74.97 88.98,-33.94 155.79,-101.82 198.93,-157.91 64.14,-125.91 112.53,-232.37 123.12,-290.3 0.04,0 140.12,12.53 144.36,46.29 4.7,36.72 -34.79,130.16 -91.8,252.37 119.84,-143.93 268.19,-310.85 329.18,-333.18 109.58,-40.33 191.34,49.17 188.3,96.8 -4.02,61.41 -74.75,239.32 -152.95,391.78l0.01 0 0 -0.01zm219.14 230.55c35.88,13.76 56.79,121.46 -108.03,183.52 -127.45,48.08 -358.06,87.06 -675.25,139.2 14.01,-45.19 30.48,-92 48.62,-139.41 361.31,-50.03 646.53,-100.76 734.66,-183.31l0 0zm-990.39 -423.06c-29.92,-0.04 -71.09,9.6 -104.15,87.8 -52.81,125.2 -12.25,168.24 -12.25,168.24 0.04,0 -120.68,222.35 -195.12,177.96 -74.39,-44.48 53.56,-288.06 180.73,-450.6 65.8,-83.96 107.78,-102.52 130.56,-95.5 42.41,13.09 8.22,85.76 0.22,112.07l0 0 0.01 0.03zm2211.43 -3205.58c16.78,87.03 48.46,191.95 101.62,320.5 269.88,653.49 106.19,1252.71 88.48,1022.88 -17.7,-229.73 -181.43,-563.21 -181.43,-563.21 75.25,256.89 150.49,748 39.83,1185.15 -110.53,437.13 -402.56,909.07 -402.56,909.07 110.64,585.82 -274.28,1286.73 -274.28,1286.73 44.27,-207.3 -35.35,-549.74 -35.35,-549.74 -8.78,603.85 -513.19,1257.27 -513.19,1257.27 141.54,-297.29 110.56,-707.39 110.56,-707.39 -212.26,892.24 -875.84,1050.04 -875.84,1050.04 61.95,-85.6 66.39,-211.83 66.39,-211.83 -304.58,332.95 -939.58,456.2 -1135.49,487.18 -195.9,-30.97 -830.86,-154.23 -1135.49,-487.18 0.01,0 4.39,126.26 66.32,211.83 0,0 -663.43,-157.8 -875.84,-1050.04 0.01,0 -30.97,410.1 110.56,707.39 0.01,0 -504.19,-653.41 -513.08,-1257.27 0.04,0 -79.58,342.44 -35.41,549.74 0,-0.01 -384.81,-700.9 -274.29,-1286.73 0,0 -291.92,-471.94 -402.52,-909.07 -110.63,-437.16 -35.45,-928.26 39.76,-1185.15 0,0 -163.69,333.48 -181.33,563.21 -17.74,229.83 -181.4,-369.39 88.54,-1022.88 40.22,-97.44 68.05,-181.22 86.53,-254 -11.6,-21 -22.96,-43.53 -32.94,-66.5l272.8 -0.01c3.25,9.11 5.08,14.08 5.08,14.08 0,-0.07 -128.34,243.24 -159.32,441.47 0.01,0 221.23,-288.4 446.87,-360.5 0,0 -287.55,405.7 -362.8,833.82 -39.09,222.28 43.64,453.06 175.47,622.37 -66.56,-109.21 -95.21,-241.51 -77.18,-392.68 62.02,-518.19 482.17,-717.69 482.17,-717.69 -168.09,5.75 -380.4,181.4 -380.4,181.4 471.6,-576.44 1258.64,-287.09 1015.25,78.92 13.2,-270.34 -561.76,-297.47 -628.22,81.08 -66.32,378.52 212.38,513.78 212.38,513.78 -305.22,-36.12 -402.56,-261.41 -402.56,-261.41 0,0 -8.85,410.06 508.74,392.08 517.56,-18.03 982.07,-572.35 982.07,-572.35 -216.78,85.58 -499.82,274.92 -499.82,274.92 0,0 234.39,-396.52 659.02,-495.72 332.85,-77.72 676.46,88.08 809.63,163.49 133.14,-75.46 476.74,-241.2 809.55,-163.49 424.72,99.2 659.17,495.72 659.17,495.72 0,0 -283.14,-189.33 -499.96,-274.92 0.01,0 464.6,554.32 982.13,572.35 517.6,17.99 508.74,-392.08 508.74,-392.08 0.04,0 -97.33,225.36 -402.56,261.41 0.01,0 278.7,-135.25 212.29,-513.78 -66.28,-378.54 -641.49,-351.41 -628.19,-81.08 -243.38,-366.01 543.74,-655.35 1015.33,-78.92 0.01,0 -212.34,-175.65 -380.43,-181.4 0,0 420.26,199.5 482.17,717.69 18.05,151.1 -10.58,283.42 -77.15,392.54 131.84,-169.21 214.45,-399.94 175.4,-622.22 -75.16,-428.13 -362.72,-833.82 -362.72,-833.82 225.6,72.11 446.75,360.5 446.75,360.5 -30.86,-198.23 -159.23,-441.47 -159.23,-441.47 0.04,-0.07 1.79,-4.97 5.11,-14.08l224.84 -0.01 0.03 0.01zm-1052.8 1892.94c-97.55,3.63 -201.51,-2.07 -310.56,-17.85 -685.71,-99.24 -1203.24,-617.36 -1203.24,-617.36 0,0 380.47,545.22 1079.43,684.95 0.01,0 -1093.75,-78.48 -1524.07,-579.58 -430.32,501.09 -1524.03,579.58 -1524.03,579.58 699,-139.74 1079.36,-684.95 1079.36,-684.95 0.04,0 -517.56,518.12 -1203.22,617.36 -109,15.77 -213.03,21.48 -310.58,17.85 0,0 331.86,194.13 752.19,166.93 0,0 -110.45,75.75 -141.39,210.93 -12.21,53.44 391.55,223.24 711.23,272.94 -441.18,95.92 -1023.93,501.41 -1005.91,796.44 23.25,382.44 732.37,376.87 846,492.79 72,73.42 -601.7,129.26 -671.55,294.43 -51.79,122.45 14.46,258.97 152.82,303.32 69.99,-335.6 679.7,-374.83 693.88,-562.72 14.65,-194.7 -559.08,-226.8 -677.72,-421.95 -225.28,-370.78 830.19,-888.97 973.53,-758.97 140.15,127.22 -245.47,497.03 -382.77,576.44 0.04,0 34,-71.93 20.11,-209.23 0.04,-0.01 -68.51,196.7 -316.05,401.81 0.03,0 94.83,151.62 178.12,136.67 185.16,-33.2 938.24,-729.76 580.49,-1009.54 -26.88,-21 -59.01,-36.09 -95.21,-45.93 61.17,-23.4 93.91,-68.62 81.14,-143.9 -17.71,-103.58 -362.8,-193.74 -504.41,-270.33 0.01,0 483.05,39.05 763.97,44.41 280.84,-5.36 764.01,-44.41 764.01,-44.41 -141.6,76.58 -486.73,166.76 -504.44,270.33 -67.13,393.31 1134.61,-24.94 1113.79,-115.78 -30.97,-135.14 -166.97,-217.74 -166.97,-217.74 420.12,27.2 752.02,-166.93 752.02,-166.93l0.04 0 -0.01 -0.01z"/>
  <path class="fil0" d="M967.92 7111.96l1459.71 0 0 -276.83 -1459.71 0 0 276.83zm7311.1 0l1459.61 0 0 -276.83 -1459.61 0 0 276.83zm0 -3107.78l1459.61 0 0 -276.84 -1459.61 0 0 276.84zm-7311.1 0l1459.71 0 0 -276.84 -1459.71 0 0 276.84z"/>
  <path class="fil0" d="M1186.32 5673.36c-112.74,327.55 -411.77,362.62 -691.21,362.62l-495.11 0 441.19 -1380.3 -308.82 0 107.84 -333.39 647.09 0c142.16,0 318.64,11.7 436.3,163.78 68.63,87.71 93.13,222.25 53.92,345.06 -49.02,175.45 -161.77,286.6 -303.93,374.33 117.65,111.12 166.66,304.12 112.74,467.89l-0.01 0.01zm-289.22 -134.52c9.8,-58.48 4.9,-116.98 -24.51,-152.06 -44.12,-58.5 -88.25,-64.32 -235.32,-64.32l-78.44 0 -127.45 380.16c117.65,0 264.73,5.84 333.35,-17.57 88.24,-29.24 122.55,-105.27 132.36,-146.21l0.01 0zm156.87 -760.33c0,-64.34 -29.4,-122.82 -161.76,-122.82l-117.66 0 -112.77 333.37c112.77,0 225.51,0 274.54,-23.4 83.33,-46.78 112.75,-116.96 117.65,-187.15zm446.1 959.19c-147.07,257.35 -333.34,298.29 -504.92,298.29 93.12,-52.64 205.89,-152.05 245.09,-298.29l259.82 0 0.01 0zm784.35 -725.24l289.22 0 -240.21 736.93 436.3 0c-151.97,181.32 -338.25,356.79 -549.04,292.45 -53.91,-17.55 -122.55,-93.58 -137.26,-146.24 -122.55,105.31 -186.27,181.32 -362.76,181.32 -151.97,0 -230.4,-210.54 -235.3,-333.37 -9.81,-181.3 39.22,-397.72 250.02,-631.67 93.13,-105.29 254.91,-175.45 387.26,-128.66 49.02,11.71 93.17,40.94 132.36,111.11l29.42 -81.87 -0.01 0zm-446.1 707.69c58.82,58.5 166.67,-17.53 225.51,-99.43 63.71,-99.42 137.24,-257.33 53.92,-327.53 -78.45,-64.34 -201,40.92 -264.74,163.77 -39.2,81.88 -68.62,204.72 -14.69,263.19zm1333.39 -701.86c98.06,-11.71 205.9,-35.08 254.91,58.5 44.12,87.71 19.62,163.75 -49.01,374.3l-93.15 298.29 421.59 0c-166.67,210.56 -352.96,310 -529.44,310 -44.12,0 -137.26,-23.4 -171.56,-99.43 -44.13,-87.71 -4.92,-228.09 58.81,-426.94l83.35 -263.19c-93.15,0 -166.69,0 -166.69,0l-132.36 415.23c0,0 -49.01,122.84 -284.32,228.12 98.04,-175.47 230.38,-614.12 220.6,-660.92 -39.23,-146.21 24.51,-350.93 83.32,-421.11 34.32,-35.1 68.63,-40.92 98.04,-35.1 34.32,11.71 63.74,29.26 68.64,76.05 9.8,35.1 4.9,76.03 -9.81,163.77l147.07 -17.56 0.01 -0.01zm1196.13 -696l-235.3 736.93c107.86,-111.12 220.6,-105.28 294.13,-76.02 73.53,23.37 127.45,87.71 147.07,233.95 24.51,169.61 -53.93,462.05 -191.18,649.2 -127.47,175.47 -323.56,228.11 -451.02,210.54 -78.42,-11.69 -200.97,-46.77 -259.8,-163.75 -63.73,-128.68 -9.81,-292.45 78.44,-555.65l333.33 -1035.22 284.33 0 0 0.02zm-406.88 1462.19c98.04,40.95 186.29,-116.96 225.51,-204.71 44.12,-99.42 107.85,-292.43 14.7,-315.82 -78.43,-17.55 -181.38,99.43 -240.21,280.74 -29.42,76.02 -58.81,216.4 0,239.79zm887.29 -35.11c-171.58,216.42 -294.13,310 -529.42,310 112.74,-93.58 181.37,-204.72 220.59,-310l308.82 0 0.01 0zm985.35 29.26c-186.29,210.56 -372.57,280.74 -549.04,280.74 -142.16,0 -210.79,0 -303.93,-29.24 -78.43,-23.41 -161.77,-111.14 -181.37,-245.66 -39.22,-239.79 78.43,-538.08 200.98,-655.06 161.78,-157.91 294.13,-187.16 431.38,-146.21 68.64,23.37 127.46,93.58 147.08,187.16 24.51,99.43 -9.82,216.4 -83.35,315.82 -122.55,157.92 -250.01,216.42 -426.48,292.45l764.75 0 -0.02 0zm-509.83 -462.05c4.9,-17.54 19.62,-52.63 14.71,-70.19 0,-23.4 -39.23,-46.79 -107.85,0 -44.12,35.08 -127.47,140.37 -132.36,257.33 93.13,-29.24 200.98,-116.96 225.49,-187.16l0.01 0.02zm911.81 -298.3c93.14,-11.71 205.9,-35.08 254.91,58.5 44.12,87.71 19.62,163.75 -49.01,374.3l-98.04 298.29 426.48 0c-166.67,210.56 -357.87,310 -529.45,310 -49.02,0 -137.25,-23.4 -176.48,-99.43 -39.2,-87.71 0,-228.09 58.84,-426.94l83.33 -263.19c-93.14,0 -161.78,0 -161.78,0l-132.35 415.23c0,0 -53.93,122.84 -284.33,228.12 93.15,-175.47 230.4,-614.12 215.7,-660.92 -34.31,-146.21 24.51,-350.93 88.24,-421.11 34.31,-35.1 63.73,-40.92 98.04,-35.1 29.42,11.71 58.84,29.26 68.63,76.05 4.91,35.1 4.91,76.03 -14.7,163.77l151.96 -17.56 0.01 -0.01zm1122.6 292.45l24.51 122.82c34.31,157.92 39.21,216.4 -14.71,315.82l367.67 0c-156.86,181.32 -289.21,310 -387.26,310l-529.45 0 73.54 -286.6c117.65,0 151.97,0 196.09,-70.17 44.11,-64.34 4.89,-233.95 -9.81,-315.84l-14.7 -81.89 -284.33 473.76c0,0 -102.95,105.29 -308.85,175.45 171.58,-216.4 455.91,-672.6 563.76,-1052.78l313.75 0c-29.42,187.17 -34.31,198.88 9.8,409.43l-0.01 0zm1044.16 -988.45l-250.02 772.03c53.93,-58.47 210.8,-163.74 348.06,-140.37 49.01,11.7 112.75,52.63 132.36,116.96 29.42,87.74 0,228.12 -53.92,391.87l-93.13 286.58 455.88 0c-127.44,169.62 -372.56,310 -529.42,310 -63.74,0 -147.08,-23.4 -191.2,-99.43 -34.31,-64.35 -44.12,-146.22 19.62,-356.77l63.73 -198.85c34.32,-99.43 34.32,-111.14 29.43,-140.37 0,-17.55 -19.62,-23.41 -39.24,-23.41 -132.35,0 -264.71,216.41 -348.04,497.15l-88.25 298.29 -294.13 0 549.06 -1713.68 289.22 0 -0.01 0zm1318.69 1199c-49.03,228.09 -294.13,684.3 -661.8,526.38 -196.09,-81.87 -235.3,-368.46 -117.67,-684.29 98.04,-257.35 259.82,-421.12 509.84,-391.87 200.98,23.41 343.14,204.7 269.63,549.77l0 0.01zm-509.84 239.79c102.95,40.92 196.09,-116.98 235.3,-263.19 24.52,-116.98 9.81,-193.02 -63.73,-222.26 -83.34,-29.24 -166.69,93.58 -205.89,198.86 -34.32,99.43 -44.12,257.35 34.31,286.58l0.01 0.01zm843.17 -11.71c-191.16,310 -333.33,310 -553.95,310 102.96,-93.58 171.59,-193.02 220.62,-310l333.33 0zm475.49 -695.99c98.06,-70.19 230.43,-105.28 323.56,-64.34 49.01,17.53 102.95,58.5 127.46,128.68 34.32,99.43 14.7,386.01 -156.88,631.65l455.91 0c-112.75,181.32 -245.1,310 -637.28,310 -259.82,0 -294.13,-35.1 -392.16,-116.98l-279.44 848.07 -289.22 0 647.08 -2011.97 284.33 0 -83.35 274.89 -0.01 0zm-156.84 666.75c78.42,58.5 210.78,-76.03 264.71,-210.54 39.22,-93.58 83.35,-239.79 4.91,-274.88 -73.53,-35.1 -171.58,70.17 -230.4,204.71 -44.12,99.41 -88.24,245.61 -39.22,280.72l0 -0.01z"/>
 </g>
</svg>
