<?xml version="1.0" encoding="UTF-8"?>
<!DOCTYPE svg PUBLIC "-//W3C//DTD SVG 1.1//EN" "http://www.w3.org/Graphics/SVG/1.1/DTD/svg11.dtd">
<!-- Creator: CorelDRAW 2017 -->
<?xml-stylesheet href="6116-Безымянный-4-714dd6a4-3581-4055-bcdd-6256c3c027ac.css" type="text/css"?>
<svg xmlns="http://www.w3.org/2000/svg" xml:space="preserve" width="112.799mm" height="24.6818mm" version="1.1" style="shape-rendering:geometricPrecision; text-rendering:geometricPrecision; image-rendering:optimizeQuality; fill-rule:evenodd; fill:#fff; clip-rule:evenodd"
viewBox="0 0 10057.61 2200.72"
 xmlns:xlink="http://www.w3.org/1999/xlink">
 <g id="Слой_x0020_1">
  <metadata id="CorelCorpID_0Corel-Layer"/>
  <path class="fil0" d="M1057.77 1204.66c-100.52,292.06 -367.15,323.33 -616.31,323.33l-441.46 0 393.38 -1230.73 -275.36 0 96.15 -297.26 576.97 0c126.76,0 284.11,10.43 389.02,146.03 61.19,78.21 83.04,198.17 48.08,307.67 -43.71,156.44 -144.24,255.54 -271,333.77 104.9,99.08 148.6,271.17 100.52,417.19zm-257.88 -119.94c8.74,-52.14 4.37,-104.3 -21.85,-135.58 -39.34,-52.16 -78.69,-57.35 -209.82,-57.35l-69.94 0 -113.64 338.97c104.9,0 236.04,5.21 297.23,-15.67 78.68,-26.07 109.27,-93.86 118.02,-130.37zm139.87 -677.94c0,-57.37 -26.21,-109.51 -144.23,-109.51l-104.91 0 -100.55 297.25c100.55,0 201.07,0 244.79,-20.86 74.3,-41.71 100.53,-104.29 104.9,-166.87zm397.76 855.25c-131.13,229.46 -297.22,265.97 -450.21,265.97 83.03,-46.94 183.58,-135.57 218.53,-265.97l231.67 0zm699.36 -646.65l257.88 0 -214.18 657.08 389.02 0c-135.5,161.67 -301.6,318.13 -489.55,260.76 -48.07,-15.65 -109.27,-83.44 -122.39,-130.39 -109.27,93.9 -166.09,161.67 -323.45,161.67 -135.5,0 -205.43,-187.73 -209.8,-297.25 -8.75,-161.65 34.97,-354.62 222.93,-563.22 83.04,-93.88 227.29,-156.44 345.3,-114.72 43.71,10.44 83.07,36.5 118.02,99.07l26.23 -73zm-397.76 631c52.45,52.16 148.61,-15.63 201.07,-88.66 56.81,-88.65 122.37,-229.45 48.08,-292.04 -69.95,-57.37 -179.22,36.49 -236.05,146.02 -34.95,73.01 -61.18,182.54 -13.1,234.67zm1188.9 -625.8c87.43,-10.44 183.59,-31.28 227.29,52.16 39.34,78.21 17.49,146.01 -43.7,333.74l-83.06 265.97 375.91 0c-148.61,187.74 -314.71,276.41 -472.07,276.41 -39.34,0 -122.39,-20.86 -152.97,-88.66 -39.35,-78.21 -4.39,-203.37 52.44,-380.68l74.32 -234.67c-83.06,0 -148.63,0 -148.63,0l-118.02 370.24c0,0 -43.7,109.53 -253.51,203.4 87.42,-156.46 205.42,-547.57 196.7,-589.3 -34.98,-130.37 21.85,-312.9 74.29,-375.48 30.6,-31.3 61.19,-36.49 87.42,-31.3 30.6,10.44 56.83,26.09 61.2,67.81 8.74,31.3 4.37,67.79 -8.75,146.02l131.13 -15.66zm1066.52 -620.58l-209.8 657.08c96.17,-99.08 196.7,-93.87 262.26,-67.78 65.56,20.84 113.64,78.21 131.13,208.6 21.85,151.23 -48.09,411.98 -170.46,578.85 -113.66,156.46 -288.5,203.39 -402.15,187.73 -69.92,-10.42 -179.19,-41.7 -231.65,-146.01 -56.82,-114.74 -8.75,-260.76 69.94,-495.44l297.21 -923.04 253.52 0zm-362.79 1303.74c87.42,36.51 166.1,-104.29 201.07,-182.53 39.34,-88.65 96.16,-260.74 13.11,-281.6 -69.93,-15.65 -161.73,88.66 -214.18,250.32 -26.23,67.78 -52.44,192.95 0,213.81zm791.14 -31.3c-152.99,192.97 -262.26,276.41 -472.05,276.41 100.52,-83.44 161.72,-182.54 196.69,-276.41l275.36 0zm878.58 26.09c-166.1,187.74 -332.2,250.32 -489.55,250.32 -126.76,0 -187.95,0 -271,-26.07 -69.93,-20.87 -144.24,-99.1 -161.72,-219.04 -34.97,-213.81 69.93,-479.77 179.2,-584.08 144.25,-140.8 262.26,-166.88 384.64,-130.37 61.2,20.84 113.65,83.44 131.14,166.88 21.85,88.66 -8.76,192.95 -74.32,281.6 -109.27,140.81 -222.92,192.97 -380.27,260.76l681.88 0zm-454.58 -411.99c4.37,-15.64 17.49,-46.93 13.12,-62.58 0,-20.86 -34.98,-41.72 -96.16,0 -39.34,31.28 -113.66,125.16 -118.02,229.45 83.04,-26.07 179.2,-104.29 201.06,-166.88zm813 -265.97c83.05,-10.44 183.59,-31.28 227.29,52.16 39.34,78.21 17.49,146.01 -43.7,333.74l-87.42 265.97 380.27 0c-148.61,187.74 -319.09,276.41 -472.08,276.41 -43.71,0 -122.38,-20.86 -157.36,-88.66 -34.95,-78.21 0,-203.37 52.46,-380.68l74.3 -234.67c-83.05,0 -144.25,0 -144.25,0l-118.01 370.24c0,0 -48.09,109.53 -253.52,203.4 83.06,-156.46 205.43,-547.57 192.33,-589.3 -30.59,-130.37 21.85,-312.9 78.68,-375.48 30.59,-31.3 56.82,-36.49 87.42,-31.3 26.23,10.44 52.46,26.09 61.19,67.81 4.38,31.3 4.38,67.79 -13.11,146.02l135.49 -15.66zm1000.96 260.76l21.85 109.51c30.59,140.81 34.96,192.95 -13.12,281.6l327.83 0c-139.86,161.67 -257.87,276.41 -345.3,276.41l-472.08 0 65.57 -255.54c104.9,0 135.5,0 174.84,-62.57 39.33,-57.37 4.36,-208.6 -8.75,-281.62l-13.11 -73.02 -253.52 422.42c0,0 -91.79,93.88 -275.38,156.44 152.99,-192.95 406.51,-599.72 502.67,-938.7l279.75 0c-26.23,166.89 -30.59,177.33 8.74,365.06zm931.01 -881.34l-222.93 688.37c48.09,-52.13 187.96,-146 310.34,-125.16 43.7,10.43 100.53,46.93 118.02,104.29 26.23,78.23 0,203.4 -48.08,349.41l-83.04 255.53 406.48 0c-113.63,151.24 -332.19,276.41 -472.05,276.41 -56.83,0 -131.14,-20.86 -170.48,-88.66 -30.59,-57.38 -39.34,-130.38 17.49,-318.11l56.82 -177.3c30.6,-88.66 30.6,-99.1 26.24,-125.16 0,-15.65 -17.49,-20.87 -34.99,-20.87 -118.01,0 -236.03,192.96 -310.33,443.28l-78.69 265.97 -262.26 0 489.56 -1527.99 257.88 0zm1175.8 1069.07c-43.72,203.37 -262.26,610.15 -590.09,469.34 -174.84,-73 -209.8,-328.53 -104.92,-610.14 87.42,-229.46 231.67,-375.49 454.59,-349.41 179.2,20.87 305.96,182.52 240.41,490.2zm-454.59 213.81c91.79,36.49 174.84,-104.3 209.8,-234.67 21.86,-104.3 8.75,-172.1 -56.82,-198.18 -74.31,-26.07 -148.63,83.44 -183.58,177.31 -30.6,88.66 -39.34,229.46 30.59,255.53zm751.8 -10.44c-170.45,276.41 -297.21,276.41 -493.92,276.41 91.8,-83.44 153,-172.1 196.71,-276.41l297.21 0zm423.97 -620.57c87.43,-62.58 205.46,-93.87 288.5,-57.37 43.7,15.63 91.79,52.16 113.65,114.74 30.6,88.66 13.11,344.18 -139.88,563.2l406.51 0c-100.53,161.67 -218.54,276.41 -568.22,276.41 -231.67,0 -262.26,-31.3 -349.67,-104.3l-249.16 756.17 -257.88 0 576.96 -1793.95 253.52 0 -74.32 245.1zm-139.85 594.5c69.92,52.16 187.94,-67.79 236.03,-187.73 34.97,-83.44 74.32,-213.81 4.38,-245.09 -65.56,-31.3 -152.99,62.57 -205.43,182.53 -39.34,88.64 -78.68,219 -34.97,250.3z"/>
 </g>
</svg>
